<svg id="Filled" height="512" viewBox="0 0 512 512" width="512" xmlns="http://www.w3.org/2000/svg"><path d="m256 440c-73.36 0-137.72-25.93-152-104 9.54-28.44 40.65-48 40.65-48-29.4-11.76-32.65-47.148-32.65-64 0-48 69.49-168 144-168s144 120 144 168c0 16.852-3.25 52.24-32.65 64 0 0 31.11 19.56 40.65 48-14.28 78.07-78.64 104-152 104z" fill="#f5dd67"/><path d="m80 296 64 56 56-56 56 56 56-56 56 56 64-56h-.383c-6.025 124.082-82.349 192-175.617 192s-169.592-67.918-175.617-192" fill="#f0c6a4"/><path d="m136 112c34.135-53.069 80.154-88 120.066-88s85.934 34.931 120.065 88h-3.931l-69.682-32-46.452 32-46.453-32-69.678 32z" fill="#f0c6a4"/><path d="m117.636 325.95-13.576-8.466c7.767-12.459 18.215-22.325 25.919-28.6-12.613-9.363-25.979-27.984-25.979-64.884 0-32.3 28.742-94.914 71.528-136.642l11.172 11.454c-39.307 38.335-66.7 96.744-66.7 125.188 0 17 3.589 46.959 27.621 56.572a8 8 0 0 1 1.287 14.2c-.186.119-19.667 12.565-31.272 31.178z"/><path d="m256 264c-21.542 0-40-21.994-40-40 0-24 30.106-24 40-24s40 0 40 24c0 18.006-18.458 40-40 40zm0-48c-24 0-24 5.606-24 8 0 9.258 10.983 24 24 24s24-14.742 24-24c0-2.394 0-8-24-8z"/><circle cx="224" cy="176" r="8"/><circle cx="288" cy="176" r="8"/><path d="m439.489 293.186a8 8 0 0 0 -7.489-5.186h-.383a7.994 7.994 0 0 0 -6.6 3.483l-21.83 19.1a128.075 128.075 0 0 0 -21.163-21.7c12.61-9.362 25.976-27.983 25.976-64.883 0-26.074-18.708-71.836-48.4-110.463l13.342 5.8a8 8 0 0 0 9.918-11.665c-36.373-56.546-84.96-91.672-126.795-91.672s-90.422 35.127-126.794 91.672a8 8 0 0 0 9.918 11.665l69.541-30.23 42.8 29.481a8 8 0 0 0 9.077 0l42.8-29.481 21.874 9.508-.086.089c39.367 38.338 66.805 96.803 66.805 125.296 0 17-3.589 46.959-27.621 56.572a8 8 0 0 0 -1.287 14.2c.179.114 16.326 10.381 28.017 26.378l-22.745 19.9-50.707-50.708a8 8 0 0 0 -11.314 0l-50.343 50.344-50.343-50.343a8 8 0 0 0 -11.314 0l-50.707 50.708-56.65-49.568a7.994 7.994 0 0 0 -6.6-3.483h-.386a8 8 0 0 0 -7.479 10.839c3.368 59.907 23.125 110.1 57.209 145.26 32.443 33.469 77.286 51.901 126.27 51.901s93.827-18.432 126.27-51.9c34.084-35.165 53.841-85.353 57.209-145.26a8 8 0 0 0 .01-5.654zm-141.509-219.774-41.915 28.874-41.914-28.874a8 8 0 0 0 -7.727-.749l-47.063 20.459c12.268-15.354 25.574-28.458 39.265-38.592 19.913-14.739 39.774-22.53 57.439-22.53s37.528 7.791 57.44 22.53c13.691 10.134 27 23.238 39.266 38.592l-47.063-20.459a8 8 0 0 0 -7.728.749zm72.8 359.551c-29.827 30.772-69.517 47.037-114.78 47.037s-84.953-16.265-114.78-47.037c-28.054-28.942-45.581-69.313-51.22-117.587l48.736 42.645a8 8 0 0 0 10.925-.364l50.339-50.343 50.343 50.343a8 8 0 0 0 11.314 0l50.343-50.343 50.343 50.343a8 8 0 0 0 10.925.364l48.732-42.645c-5.639 48.274-23.166 88.645-51.22 117.587z"/></svg>