<svg id="_x33_0" enable-background="new 0 0 64 64" height="512" viewBox="0 0 64 64" width="512" xmlns="http://www.w3.org/2000/svg"><path d="m42 44c3.87 0 7 4.03 7 9 0 .33-.01.66-.05.99-.38 4.51-3.34 8.01-6.95 8.01-2 0-3.8-.75-5-2l-.25-.18c2.2-2.8 1.45-7.44-1.84-10.73l.09-.09c1.21-2.96 4-5 7-5z" fill="#ecc19c"/><path d="m34.91 49.09c3.29 3.29 4.04 7.93 1.84 10.73-.14.17-.28.33-.44.49-2.71 2.72-7.73 2.09-11.22-1.4-.13-.13-.25-.26-.37-.39-3.16-3.46-3.65-8.22-1.03-10.83 2.71-2.72 7.73-2.09 11.22 1.4z" fill="#dfb28b"/><path d="m38.79 15.92c1.36-2.91 4.3-4.92 7.71-4.92.83 0 1.64.12 2.4.35 1.38.4 2.62 1.15 3.61 2.14.17.17.33.34.48.52 1.25 1.48 2.01 3.4 2.01 5.49v.5s-.25 1.25-.5 2.75-.5 3.25-.5 4.25c0 .83.34 1.58.88 2.12.04.04.08.08.12.11v7.77c-3-1-2-4-5-4-2 0-4 3-4 3s-2-3-5-3h-3v-13.5c0-1.28.28-2.49.79-3.58z" fill="#ffeaa7"/><path d="m55 40c0 5-1 10-6 14l-.05-.01c.04-.33.05-.66.05-.99 0-4.97-3.13-9-7-9-3 0-5.79 2.04-7 5l-.09.09c-3.49-3.49-8.51-4.12-11.22-1.4-2.62 2.61-2.13 7.37 1.03 10.83l-.02.47c-11.83-.21-19.7-12.99-19.7-12.99l3.77-1.89c-4.51-2.1-6.77-5.11-6.77-5.11s8.72-1.94 13.76-2.95c.91.31 1.99.58 3.25.75l-.01.2-2 2s3 3 10 3 11-5 11-8c0-.33-.02-.66-.06-.99l.06-.01h3c3 0 5 3 5 3s2-3 4-3c3 0 2 3 5 4z" fill="#fcd770"/><path d="m49 11-.1.35c-.76-.23-1.57-.35-2.4-.35-3.41 0-6.35 2.01-7.71 4.92-1.06-.41-5.79-2.48-5.79-6.92v-1c0-1.1.45-2.1 1.17-2.83.73-.72 1.73-1.17 2.83-1.17s2.1.45 2.83 1.17c.72.73 1.17 1.73 1.17 2.83v-1c0-1.38.56-2.63 1.46-3.54.91-.9 2.16-1.46 3.54-1.46s2.63.56 3.54 1.46c.9.91 1.46 2.16 1.46 3.54 0 2-.94 2.96-2 4z" fill="#fc6e51"/><path d="m19.01 36.8c-1.26-.17-2.34-.44-3.25-.75-2.59-.88-3.76-2.05-3.76-2.05l2-2 .06-.31c-5.37-.94-6.06-3.69-6.06-3.69 7-1 8-6 16-6 7.56 0 13.33 5.36 13.94 11.01.04.33.06.66.06.99 0 3-4 8-11 8s-10-3-10-3l2-2z" fill="#ff826e"/><path d="m61 14-6 6v-.5c0-2.09-.76-4.01-2.01-5.49l.01-.01z" fill="#e6e9ed"/><path d="m55 29.23c-.04-.03-.08-.07-.12-.11-.54-.54-.88-1.29-.88-2.12 0-1 .25-2.75.5-4.25s.5-2.75.5-2.75 5 3 5 7c0 .83-.34 1.58-.88 2.12s-1.29.88-2.12.88c-.77 0-1.47-.29-2-.77z" fill="#ff826e"/><circle cx="46" cy="17" fill="#656d78" r="2"/><path d="m42 47v2c.687 0 2 1.558 2 4h2c0-3.252-1.832-6-4-6z"/><path d="m32.002 57c-.994 0-2.255-.652-3.29-1.702l-1.424 1.404c1.419 1.439 3.181 2.298 4.714 2.298 1.43 0 2.263-.844 2.71-1.298l-1.424-1.404c-.405.411-.735.702-1.286.702z"/><path d="m43 17c0 1.654 1.346 3 3 3s3-1.346 3-3-1.346-3-3-3-3 1.346-3 3zm4 0c0 .551-.448 1-1 1s-1-.449-1-1 .448-1 1-1 1 .449 1 1z"/><path d="m56.555 19.859 6.859-6.859h-10.005c-.824-.875-1.809-1.592-2.911-2.106.805-.902 1.502-2.039 1.502-3.894 0-3.309-2.691-6-6-6-2.413 0-4.492 1.435-5.444 3.493-.907-.92-2.165-1.493-3.556-1.493-2.757 0-5 2.243-5 5v1c0 4.231 3.588 6.529 5.509 7.456-.325.957-.509 1.979-.509 3.044v8.205c-2.474-3.784-7.091-6.705-13-6.705-4.677 0-7.141 1.617-9.524 3.181-1.887 1.238-3.668 2.408-6.617 2.829l-1.098.157.27 1.076c.036.146.761 2.773 5.254 4.059l-1.699 1.698.707.707c.047.047.475.458 1.307.972-4.867 1.023-10.744 2.328-10.817 2.344l-1.512.337.929 1.24c.097.13 1.876 2.46 5.375 4.494l-2.999 1.5.572.93c.337.547 8.344 13.321 20.638 13.469 1.771 1.623 3.908 2.665 6.082 2.937.381.047.755.071 1.122.071 1.883 0 3.56-.627 4.834-1.802 1.375 1.152 3.221 1.801 5.176 1.801 3.988 0 7.295-3.671 7.894-8.45 5.394-4.485 6.106-10.118 6.106-14.55v-9.142c.322.084.653.142 1 .142 2.206 0 4-1.794 4-4 0-3.325-2.852-5.939-4.445-7.141zm2.031-4.859-2.755 2.755c-.183-.978-.51-1.906-.969-2.755zm-4.586 4.5v.402c-.146.736-1 5.158-1 7.098 0 1.005.385 1.914 1 2.618v5.522c-.202-.259-.37-.55-.552-.87-.543-.958-1.287-2.27-3.448-2.27-1.646 0-3.145 1.38-4.028 2.402-.969-1.015-2.708-2.402-4.972-2.402h-2v-12.5c0-4.136 3.364-7.5 7.5-7.5s7.5 3.364 7.5 7.5zm-20-10.5v-1c0-1.654 1.346-3 3-3s3 1.346 3 3c0 .551-.448 1-1 1s-1-.449-1-1v-1h-2v1c0 1.654 1.346 3 3 3s3-1.346 3-3v-1c0-2.206 1.794-4 4-4s4 1.794 4 4c0 1.49-.61 2.208-1.604 3.191-.613-.125-1.247-.191-1.896-.191-3.46 0-6.486 1.866-8.147 4.638-1.531-.745-4.353-2.537-4.353-5.638zm-16 24v-2c-5.117 0-7.387-1.341-8.355-2.299 2.53-.618 4.254-1.749 5.929-2.848 2.236-1.467 4.347-2.853 8.426-2.853 7.661 0 13 5.797 13 11 0 2.376-3.529 7-10 7-4.491 0-7.229-1.308-8.48-2.105l1.022-1.022c.763.079 1.579.127 2.458.127v-2c-4.491 0-7.229-1.308-8.48-2.105l1.112-1.112c.991.136 2.104.217 3.368.217zm13.116 27.946c-1.9-.238-3.79-1.211-5.32-2.742s-2.504-3.42-2.741-5.32c-.227-1.808.249-3.402 1.338-4.491.912-.912 2.177-1.393 3.627-1.393.281 0 .57.018.864.055 1.9.238 3.79 1.211 5.32 2.742s2.504 3.42 2.741 5.32c.227 1.808-.249 3.402-1.338 4.491-1.088 1.088-2.682 1.562-4.491 1.338zm10.884.054c-1.505 0-2.907-.495-3.927-1.366.773-1.354 1.079-2.992.857-4.766-.263-2.109-1.25-4.184-2.791-5.924 1.152-2.371 3.444-3.944 5.861-3.944 3.309 0 6 3.589 6 8s-2.691 8-6 8zm7.936-9.208c-.48-4.945-3.852-8.792-7.936-8.792-2.978 0-5.807 1.769-7.372 4.501-1.647-1.333-3.557-2.189-5.496-2.432-2.435-.302-4.618.374-6.153 1.909s-2.213 3.72-1.908 6.153c.205 1.639.851 3.256 1.849 4.713-8.41-1.135-14.552-8.795-16.451-11.461l2.333-1.167c.595.261 1.217.509 1.883.731l.633-1.897c-3.605-1.202-6.085-3.181-7.402-4.45 2.729-.601 8.149-1.785 11.79-2.522.437.141.905.273 1.412.39l-1.532 1.532.707.707c.135.135 3.377 3.293 10.707 3.293 7.435 0 12-5.242 12-9h2c2.415 0 4.152 2.532 4.168 2.555l.832 1.248.832-1.248c.556-.834 2.062-2.555 3.168-2.555.996 0 1.205.368 1.709 1.257.432.761 1.005 1.761 2.291 2.406v2.337c0 3.808-.526 8.108-4.064 11.792zm7.064-22.792c-1.103 0-2-.897-2-2 0-1.211.403-3.668.693-5.275 1.337 1.072 3.307 3.032 3.307 5.275 0 1.103-.897 2-2 2z"/></svg>