<svg id="Capa_1" enable-background="new 0 0 512 512" height="512" viewBox="0 0 512 512" width="512" xmlns="http://www.w3.org/2000/svg"><g><path d="m391 90c0 35-29.83 59.81-55.86 59.81l-79.14-.03-80.53-.03c-30.65-2.81-54.47-28.56-54.47-59.75 0-39.18 37.05-67.47 73.91-58.29 13.91-19.61 36.64-31.71 61.09-31.71s47.18 12.1 61.09 31.71c36.82-9.17 73.91 19.08 73.91 58.29z" fill="#ff7b4a"/><path d="m391 90c0 35-29.83 59.81-55.86 59.81l-79.14-.03v-149.78c24.45 0 47.18 12.1 61.09 31.71 36.82-9.17 73.91 19.08 73.91 58.29z" fill="#e63950"/><path d="m421 377c0 33.5-39.4 53.12-71.68 62.67-1.42.42-2.85.62-4.26.62l-89.06-.3-93.32-.32c-32.28-9.55-71.68-29.17-71.68-62.67 0-7.01 1.89-13.88 5.61-20.41 21.62-37.96 24.39-85.12 24.39-121.96v-9.63c0-74.44 60.56-135 135-135s135 60.56 135 135v9.63c0 36.84 2.77 84 24.39 121.96 3.72 6.53 5.61 13.4 5.61 20.41z" fill="#fff7cc"/><path d="m421 377c0 33.5-39.4 53.12-71.68 62.67-1.42.42-2.85.62-4.26.62l-89.06-.3v-349.99c74.44 0 135 60.56 135 135v9.63c0 36.84 2.77 84 24.39 121.96 3.72 6.53 5.61 13.4 5.61 20.41z" fill="#ffe6b3"/><g><circle cx="195.971" cy="227" fill="#766e6e" r="15"/></g><g><circle cx="315.971" cy="227" fill="#463f3f" r="15"/></g><path d="m361 437c0 41.35-33.64 75-75 75-10.35 0-20.41-2.17-30-6.48-9.59 4.3-19.65 6.48-30 6.48-41.36 0-75-33.65-75-75 0-20.72 3.21-26.03 33.93-76.8 5.24-8.68 11.36-18.79 18.48-30.65 4.27-7.1 13.48-9.4 20.58-5.14h64.02c7.1-4.26 16.31-1.96 20.58 5.14 7.12 11.87 13.24 21.97 18.49 30.65 30.71 50.78 33.92 56.08 33.92 76.8z" fill="#ff7b4a"/><path d="m361 437c0 41.35-33.64 75-75 75-10.35 0-20.41-2.17-30-6.48v-181.11h32.01c7.1-4.26 16.31-1.96 20.58 5.14 7.12 11.87 13.24 21.97 18.49 30.65 30.71 50.78 33.92 56.08 33.92 76.8z" fill="#e63950"/><g><path d="m326.61 306.39-60-60c-2.93-2.93-6.77-4.39-10.61-4.39s-7.68 1.46-10.61 4.39l-60 60c-5.85 5.86-5.85 15.36 0 21.22l60 60c2.93 2.93 6.77 4.39 10.61 4.39s7.68-1.46 10.61-4.39l60-60c5.85-5.86 5.85-15.36 0-21.22z" fill="#fed843"/></g><path d="m326.61 327.61-60 60c-2.93 2.93-6.77 4.39-10.61 4.39v-150c3.84 0 7.68 1.46 10.61 4.39l60 60c5.85 5.86 5.85 15.36 0 21.22z" fill="#ffb64c"/></g></svg>