<svg id="Capa_1" enable-background="new 0 0 512 512" height="512" viewBox="0 0 512 512" width="512" xmlns="http://www.w3.org/2000/svg"><g><g><path d="m256 53.112c-94.406 0-170.938 76.531-170.938 170.938v287.95h170.938l20-177z" fill="#fff5f5"/><path d="m426.938 224.05c0-94.406-76.531-170.938-170.938-170.938v458.888h170.938z" fill="#ebe1dc"/></g><path d="m150.044 218.429h30v30h-30z" fill="#5a5555"/><path d="m331.956 218.429h30v30h-30z" fill="#2d2d2d"/><g><path d="m207.882 0c-17.6 0-31.867 14.267-31.867 31.867s14.267 31.867 31.867 31.867c-17.6 0-31.867 14.267-31.867 31.867s14.267 31.867 31.867 31.867h16.251v11.257c0 17.6 14.267 31.867 31.867 31.867l10-94.592-10-76z" fill="#ff5b5b"/><path d="m256 0v170.593c17.6 0 31.867-14.267 31.867-31.867v-106.859c0-17.6-14.267-31.867-31.867-31.867z" fill="#c83c50"/></g><g><path d="m240.065 315.487-47.799 100.911c0 17.6 14.267 31.867 31.867 31.867 17.6 0 31.867-14.268 31.867-31.867l10-40.398-10-60.501z" fill="#ff5b5b"/><path d="m271.959 315.511-15.959-.012v100.899c0 17.6 14.267 31.867 31.867 31.867 17.6 0 31.867-14.268 31.867-31.867z" fill="#c83c50"/></g><g><path d="m211.757 285.982c0 46.634 44.243 79.12 44.243 79.12l10-58.102-10-65.382z" fill="#fd9"/><path d="m256 241.618v123.484s44.243-32.486 44.243-79.181z" fill="#fc6"/></g></g></svg>